<svg width="21" height="19" viewBox="0 0 21 19" fill="none" xmlns="http://www.w3.org/2000/svg">
<path d="M19.5016 9.92677C20.4203 10.3906 21 11.3481 21 12.3945V12.5573C21 13.8766 20.1436 15.0938 18.8767 15.3732C17.4847 15.6799 16.1437 14.8637 15.7135 13.5496C15.7123 13.5458 15.711 13.542 15.7098 13.538C15.5057 12.9029 14.9333 12.4688 14.2771 12.4688H6.72292C6.07068 12.4688 5.49682 12.8981 5.29266 13.5286L5.28646 13.5486C4.85625 14.8627 3.51531 15.6787 2.12333 15.3722C0.856406 15.0924 0 13.8752 0 12.5578V12.395C0 11.3481 0.578958 10.3906 1.49953 9.92677C1.84133 9.7505 1.84133 9.24952 1.49953 9.07325C0.578958 8.60938 0 7.65567 0 6.60548V6.4422C0 5.12296 0.856406 3.90577 2.12333 3.62634C3.51531 3.31967 4.85734 4.13919 5.28755 5.45323C5.49427 6.08966 6.06667 6.53126 6.72292 6.53126H14.2771C14.9293 6.53126 15.5032 6.1019 15.7073 5.47142L15.7135 5.45138C16.1437 4.13733 17.4847 3.3213 18.8767 3.62782C20.1432 3.90763 21 5.12481 21 6.4422V6.605C21 7.65567 20.4203 8.60938 19.5016 9.07325C19.1589 9.25138 19.1589 9.75235 19.5016 9.92677Z" fill="#333333"/>
</svg>
