<svg width="13" height="19" viewBox="0 0 13 19" fill="none" xmlns="http://www.w3.org/2000/svg">
<g clip-path="url(#clip0_24_63)">
<path d="M11.375 0.5C12.2721 0.5 13 1.25551 13 2.1875V16.8125C13 17.7441 12.2721 18.5 11.375 18.5H8.125V15.6875C8.125 14.7559 7.39714 14 6.5 14C5.60286 14 4.875 14.7559 4.875 15.6875V18.5H1.625C0.727526 18.5 0 17.7441 0 16.8125V2.1875C0 1.25551 0.727526 0.5 1.625 0.5H11.375ZM2.16667 10.0625C2.16667 10.3719 2.40906 10.625 2.70833 10.625H3.79167C4.08958 10.625 4.33333 10.3719 4.33333 10.0625V8.9375C4.33333 8.62813 4.08958 8.375 3.79167 8.375H2.70833C2.40906 8.375 2.16667 8.62813 2.16667 8.9375V10.0625ZM5.95833 8.375C5.66042 8.375 5.41667 8.62813 5.41667 8.9375V10.0625C5.41667 10.3719 5.66042 10.625 5.95833 10.625H7.04167C7.33958 10.625 7.58333 10.3719 7.58333 10.0625V8.9375C7.58333 8.62813 7.33958 8.375 7.04167 8.375H5.95833ZM8.66667 10.0625C8.66667 10.3719 8.91042 10.625 9.20833 10.625H10.2917C10.5896 10.625 10.8333 10.3719 10.8333 10.0625V8.9375C10.8333 8.62813 10.5896 8.375 10.2917 8.375H9.20833C8.91042 8.375 8.66667 8.62813 8.66667 8.9375V10.0625ZM2.70833 3.875C2.40906 3.875 2.16667 4.12812 2.16667 4.4375V5.5625C2.16667 5.87187 2.40906 6.125 2.70833 6.125H3.79167C4.08958 6.125 4.33333 5.87187 4.33333 5.5625V4.4375C4.33333 4.12812 4.08958 3.875 3.79167 3.875H2.70833ZM5.41667 5.5625C5.41667 5.87187 5.66042 6.125 5.95833 6.125H7.04167C7.33958 6.125 7.58333 5.87187 7.58333 5.5625V4.4375C7.58333 4.12812 7.33958 3.875 7.04167 3.875H5.95833C5.66042 3.875 5.41667 4.12812 5.41667 4.4375V5.5625ZM9.20833 3.875C8.91042 3.875 8.66667 4.12812 8.66667 4.4375V5.5625C8.66667 5.87187 8.91042 6.125 9.20833 6.125H10.2917C10.5896 6.125 10.8333 5.87187 10.8333 5.5625V4.4375C10.8333 4.12812 10.5896 3.875 10.2917 3.875H9.20833Z" fill="#333333"/>
</g>
<defs>
<clipPath id="clip0_24_63">
<rect width="13" height="18" fill="white" transform="translate(0 0.5)"/>
</clipPath>
</defs>
</svg>
