<svg width="22" height="21" viewBox="0 0 22 21" fill="none" xmlns="http://www.w3.org/2000/svg">
<path d="M20.1667 1.75H5.5C4.48747 1.75 3.66667 2.58945 3.66667 3.625V13.625C3.66667 14.6605 4.48747 15.5 5.5 15.5H20.1667C21.1792 15.5 22 14.6605 22 13.625V3.625C22 2.58945 21.1788 1.75 20.1667 1.75ZM8.52118 4.25C9.19646 4.25 9.7434 4.80977 9.7434 5.5C9.7434 6.19023 9.2316 6.75 8.52118 6.75C7.84628 6.75 7.29896 6.19023 7.29896 5.5C7.29896 4.80977 7.87951 4.25 8.52118 4.25ZM18.8719 12.6719C18.7649 12.875 18.5587 13 18.3333 13H7.33333C7.10329 13 6.89295 12.868 6.78868 12.6582C6.68441 12.4486 6.70408 12.1969 6.83956 12.0066L9.51317 8.25664C9.62882 8.09375 9.81215 8 10.0069 8C10.2022 8 10.3857 8.09535 10.5008 8.2568L11.3544 9.45445L13.7508 5.77828C13.8302 5.60547 14.0212 5.5 14.258 5.5C14.4622 5.5 14.6529 5.60437 14.7664 5.77832L18.8417 12.0283C18.9674 12.2188 18.9788 12.4648 18.8719 12.6719ZM17.4167 17.375H4.58333C3.06701 17.375 1.83333 16.1133 1.83333 14.5625V5.1875C1.83333 4.67188 1.42274 4.25 0.916667 4.25C0.41059 4.25 0 4.67188 0 5.1875V14.5625C0 17.1484 2.05601 19.25 4.58333 19.25H17.4167C17.9227 19.25 18.3333 18.8301 18.3333 18.3125C18.3333 17.7949 17.9247 17.375 17.4167 17.375Z" fill="#333333"/>
</svg>
