<svg width="128" height="59" viewBox="0 0 128 59" fill="none" xmlns="http://www.w3.org/2000/svg">
<path fill-rule="evenodd" clip-rule="evenodd" d="M60.8489 1.71875C60.7089 1.69922 60.5722 1.71875 60.4322 1.74479C59.319 1.95964 58.6744 3.58398 59.026 5.39063C59.3775 7.19727 60.569 8.49609 61.6822 8.28125C62.7955 8.06641 63.414 6.41602 63.0624 4.60938C62.7565 3.02734 61.8287 1.8457 60.8489 1.71875ZM67.151 1.71875C66.1712 1.8457 65.2434 3.02734 64.9374 4.60938C64.5859 6.41602 65.2044 8.06641 66.3176 8.28125C67.4309 8.49609 68.6223 7.19727 68.9739 5.39063C69.3255 3.58398 68.6809 1.95964 67.5676 1.74479C67.4277 1.71875 67.291 1.69922 67.151 1.71875ZM57.0989 7.47396C56.8059 7.49023 56.5195 7.56836 56.2916 7.73438C55.3802 8.40495 55.4941 10.0814 56.526 11.4844C57.5579 12.8874 59.1302 13.4831 60.0416 12.8125C60.9531 12.1419 60.8652 10.4655 59.8333 9.0625C59.0585 8.01107 57.9746 7.42513 57.0989 7.47396ZM70.8749 7.47396C69.9895 7.41537 68.9153 8.01107 68.1406 9.0625C67.1087 10.4655 67.2161 12.2266 68.1145 12.9427C68.8828 13.5547 70.468 12.9395 71.4999 11.5365C72.5318 10.1335 72.61 8.44075 71.6822 7.76042C71.4511 7.59115 71.1712 7.49349 70.8749 7.47396ZM63.9999 10C62.7337 10 61.7083 11.123 61.7083 12.5C61.7083 13.7467 59.4166 14.5117 59.4166 16.0156C59.4166 17.2949 60.5201 18.3333 61.8645 18.3333C62.3007 18.3333 62.6848 18.2129 63.0364 18.0208C63.4303 17.806 64.5403 17.806 64.9374 18.0208C65.2923 18.2129 65.6959 18.3333 66.1354 18.3333C67.4895 18.3333 68.5833 17.2949 68.5833 16.0156C68.5833 14.6289 66.2916 13.5352 66.2916 12.5C66.2916 11.123 65.2662 10 63.9999 10Z" fill="#F73F52"/>
<path d="M31.7822 41H28.9961L29.0137 38.9434H31.7822C32.4736 38.9434 33.0566 38.7881 33.5312 38.4775C34.0059 38.1611 34.3633 37.7012 34.6035 37.0977C34.8496 36.4941 34.9727 35.7646 34.9727 34.9092V34.2852C34.9727 33.6289 34.9023 33.0518 34.7617 32.5537C34.627 32.0557 34.4248 31.6367 34.1553 31.2969C33.8857 30.957 33.5547 30.7021 33.1621 30.5322C32.7695 30.3564 32.3184 30.2686 31.8086 30.2686H28.9434V28.2031H31.8086C32.6641 28.2031 33.4463 28.3496 34.1553 28.6426C34.8701 28.9297 35.4883 29.3428 36.0098 29.8818C36.5312 30.4209 36.9326 31.0654 37.2139 31.8154C37.501 32.5596 37.6445 33.3887 37.6445 34.3027V34.9092C37.6445 35.8174 37.501 36.6465 37.2139 37.3965C36.9326 38.1465 36.5312 38.791 36.0098 39.3301C35.4941 39.8633 34.876 40.2764 34.1553 40.5693C33.4404 40.8564 32.6494 41 31.7822 41ZM30.4902 28.2031V41H27.8535V28.2031H30.4902ZM38.998 36.3418V36.1572C38.998 35.46 39.0977 34.8184 39.2969 34.2324C39.4961 33.6406 39.7861 33.1279 40.167 32.6943C40.5479 32.2607 41.0166 31.9238 41.5732 31.6836C42.1299 31.4375 42.7686 31.3145 43.4893 31.3145C44.21 31.3145 44.8516 31.4375 45.4141 31.6836C45.9766 31.9238 46.4482 32.2607 46.8291 32.6943C47.2158 33.1279 47.5088 33.6406 47.708 34.2324C47.9072 34.8184 48.0068 35.46 48.0068 36.1572V36.3418C48.0068 37.0332 47.9072 37.6748 47.708 38.2666C47.5088 38.8525 47.2158 39.3652 46.8291 39.8047C46.4482 40.2383 45.9795 40.5752 45.4229 40.8154C44.8662 41.0557 44.2275 41.1758 43.5068 41.1758C42.7861 41.1758 42.1445 41.0557 41.582 40.8154C41.0254 40.5752 40.5537 40.2383 40.167 39.8047C39.7861 39.3652 39.4961 38.8525 39.2969 38.2666C39.0977 37.6748 38.998 37.0332 38.998 36.3418ZM41.5293 36.1572V36.3418C41.5293 36.7402 41.5645 37.1123 41.6348 37.458C41.7051 37.8037 41.8164 38.1084 41.9688 38.3721C42.127 38.6299 42.332 38.832 42.584 38.9785C42.8359 39.125 43.1436 39.1982 43.5068 39.1982C43.8584 39.1982 44.1602 39.125 44.4121 38.9785C44.6641 38.832 44.8662 38.6299 45.0186 38.3721C45.1709 38.1084 45.2822 37.8037 45.3525 37.458C45.4287 37.1123 45.4668 36.7402 45.4668 36.3418V36.1572C45.4668 35.7705 45.4287 35.4072 45.3525 35.0674C45.2822 34.7217 45.168 34.417 45.0098 34.1533C44.8574 33.8838 44.6553 33.6729 44.4033 33.5205C44.1514 33.3682 43.8467 33.292 43.4893 33.292C43.1318 33.292 42.8271 33.3682 42.5752 33.5205C42.3291 33.6729 42.127 33.8838 41.9688 34.1533C41.8164 34.417 41.7051 34.7217 41.6348 35.0674C41.5645 35.4072 41.5293 35.7705 41.5293 36.1572ZM55.583 31.4902H57.877V40.6836C57.877 41.5508 57.6836 42.2861 57.2969 42.8896C56.916 43.499 56.3828 43.959 55.6973 44.2695C55.0117 44.5859 54.2148 44.7441 53.3066 44.7441C52.9082 44.7441 52.4863 44.6914 52.041 44.5859C51.6016 44.4805 51.1797 44.3164 50.7754 44.0938C50.377 43.8711 50.043 43.5898 49.7734 43.25L50.8896 41.7559C51.1826 42.0957 51.5225 42.3594 51.9092 42.5469C52.2959 42.7402 52.7236 42.8369 53.1924 42.8369C53.6494 42.8369 54.0361 42.752 54.3525 42.582C54.6689 42.418 54.9121 42.1748 55.082 41.8525C55.252 41.5361 55.3369 41.1523 55.3369 40.7012V33.6875L55.583 31.4902ZM49.1846 36.3594V36.1748C49.1846 35.4482 49.2725 34.7891 49.4482 34.1973C49.6299 33.5996 49.8848 33.0869 50.2129 32.6592C50.5469 32.2314 50.9512 31.9004 51.4258 31.666C51.9004 31.4316 52.4365 31.3145 53.0342 31.3145C53.667 31.3145 54.1973 31.4316 54.625 31.666C55.0527 31.9004 55.4043 32.2344 55.6797 32.668C55.9551 33.0957 56.1689 33.6025 56.3213 34.1885C56.4795 34.7686 56.6025 35.4043 56.6904 36.0957V36.5C56.6025 37.1621 56.4707 37.7773 56.2949 38.3457C56.1191 38.9141 55.8877 39.4121 55.6006 39.8398C55.3135 40.2617 54.9561 40.5898 54.5283 40.8242C54.1064 41.0586 53.6025 41.1758 53.0166 41.1758C52.4307 41.1758 51.9004 41.0557 51.4258 40.8154C50.957 40.5752 50.5557 40.2383 50.2217 39.8047C49.8877 39.3711 49.6299 38.8613 49.4482 38.2754C49.2725 37.6895 49.1846 37.0508 49.1846 36.3594ZM51.7158 36.1748V36.3594C51.7158 36.752 51.7539 37.1182 51.8301 37.458C51.9062 37.7979 52.0234 38.0996 52.1816 38.3633C52.3457 38.6211 52.5479 38.8232 52.7881 38.9697C53.0342 39.1104 53.3242 39.1807 53.6582 39.1807C54.1211 39.1807 54.499 39.084 54.792 38.8906C55.085 38.6914 55.3047 38.4189 55.4512 38.0732C55.5977 37.7275 55.6826 37.3291 55.7061 36.8779V35.7266C55.6943 35.3574 55.6445 35.0264 55.5566 34.7334C55.4688 34.4346 55.3457 34.1797 55.1875 33.9688C55.0293 33.7578 54.8242 33.5938 54.5723 33.4766C54.3203 33.3594 54.0215 33.3008 53.6758 33.3008C53.3418 33.3008 53.0518 33.377 52.8057 33.5293C52.5654 33.6758 52.3633 33.8779 52.1992 34.1357C52.041 34.3936 51.9209 34.6982 51.8389 35.0498C51.7568 35.3955 51.7158 35.7705 51.7158 36.1748ZM67.4219 36.7549H70.0498C69.9971 37.6162 69.7598 38.3809 69.3379 39.0488C68.9219 39.7168 68.3389 40.2383 67.5889 40.6133C66.8447 40.9883 65.9482 41.1758 64.8994 41.1758C64.0791 41.1758 63.3438 41.0352 62.6934 40.7539C62.043 40.4668 61.4863 40.0566 61.0234 39.5234C60.5664 38.9902 60.2178 38.3457 59.9775 37.5898C59.7373 36.834 59.6172 35.9873 59.6172 35.0498V34.1621C59.6172 33.2246 59.7402 32.3779 59.9863 31.6221C60.2383 30.8604 60.5957 30.2129 61.0586 29.6797C61.5273 29.1465 62.0869 28.7363 62.7373 28.4492C63.3877 28.1621 64.1143 28.0186 64.917 28.0186C65.9834 28.0186 66.8828 28.2119 67.6152 28.5986C68.3535 28.9854 68.9248 29.5186 69.3291 30.1982C69.7393 30.8779 69.9854 31.6514 70.0674 32.5186H67.4307C67.4014 32.0029 67.2988 31.5664 67.123 31.209C66.9473 30.8457 66.6807 30.5732 66.3232 30.3916C65.9717 30.2041 65.5029 30.1104 64.917 30.1104C64.4775 30.1104 64.0938 30.1924 63.7656 30.3564C63.4375 30.5205 63.1621 30.7695 62.9395 31.1035C62.7168 31.4375 62.5498 31.8594 62.4385 32.3691C62.333 32.873 62.2803 33.4648 62.2803 34.1445V35.0498C62.2803 35.7119 62.3301 36.2949 62.4297 36.7988C62.5293 37.2969 62.6816 37.7188 62.8867 38.0645C63.0977 38.4043 63.3672 38.6621 63.6953 38.8379C64.0293 39.0078 64.4307 39.0928 64.8994 39.0928C65.4502 39.0928 65.9043 39.0049 66.2617 38.8291C66.6191 38.6533 66.8916 38.3926 67.0791 38.0469C67.2725 37.7012 67.3867 37.2705 67.4219 36.7549ZM76.7559 38.8555V34.6191C76.7559 34.3145 76.7061 34.0537 76.6064 33.8369C76.5068 33.6143 76.3516 33.4414 76.1406 33.3184C75.9355 33.1953 75.6689 33.1338 75.3408 33.1338C75.0596 33.1338 74.8164 33.1836 74.6113 33.2832C74.4062 33.377 74.248 33.5146 74.1367 33.6963C74.0254 33.8721 73.9697 34.0801 73.9697 34.3203H71.4385C71.4385 33.916 71.5322 33.5322 71.7197 33.1689C71.9072 32.8057 72.1797 32.4863 72.5371 32.2109C72.8945 31.9297 73.3193 31.71 73.8115 31.5518C74.3096 31.3936 74.8662 31.3145 75.4814 31.3145C76.2197 31.3145 76.876 31.4375 77.4502 31.6836C78.0244 31.9297 78.4756 32.2988 78.8037 32.791C79.1377 33.2832 79.3047 33.8984 79.3047 34.6367V38.7061C79.3047 39.2275 79.3369 39.6553 79.4014 39.9893C79.4658 40.3174 79.5596 40.6045 79.6826 40.8506V41H77.125C77.002 40.7422 76.9082 40.4199 76.8438 40.0332C76.7852 39.6406 76.7559 39.248 76.7559 38.8555ZM77.0898 35.208L77.1074 36.6406H75.6924C75.3584 36.6406 75.0684 36.6787 74.8223 36.7549C74.5762 36.8311 74.374 36.9395 74.2158 37.0801C74.0576 37.2148 73.9404 37.373 73.8643 37.5547C73.7939 37.7363 73.7588 37.9355 73.7588 38.1523C73.7588 38.3691 73.8086 38.5654 73.9082 38.7412C74.0078 38.9111 74.1514 39.0459 74.3389 39.1455C74.5264 39.2393 74.7461 39.2861 74.998 39.2861C75.3789 39.2861 75.71 39.21 75.9912 39.0576C76.2725 38.9053 76.4893 38.7178 76.6416 38.4951C76.7998 38.2725 76.8818 38.0615 76.8877 37.8623L77.5557 38.9346C77.4619 39.1748 77.333 39.4238 77.1689 39.6816C77.0107 39.9395 76.8086 40.1826 76.5625 40.4111C76.3164 40.6338 76.0205 40.8184 75.6748 40.9648C75.3291 41.1055 74.9189 41.1758 74.4443 41.1758C73.8408 41.1758 73.293 41.0557 72.8008 40.8154C72.3145 40.5693 71.9277 40.2324 71.6406 39.8047C71.3594 39.3711 71.2188 38.8789 71.2188 38.3281C71.2188 37.8301 71.3125 37.3877 71.5 37.001C71.6875 36.6143 71.9629 36.2891 72.3262 36.0254C72.6953 35.7559 73.1553 35.5537 73.7061 35.4189C74.2568 35.2783 74.8955 35.208 75.6221 35.208H77.0898ZM83.7871 33.5645V41H81.2559V31.4902H83.6377L83.7871 33.5645ZM86.6523 31.4287L86.6084 33.7754C86.4854 33.7578 86.3359 33.7432 86.1602 33.7314C85.9902 33.7139 85.835 33.7051 85.6943 33.7051C85.3369 33.7051 85.0264 33.752 84.7627 33.8457C84.5049 33.9336 84.2881 34.0654 84.1123 34.2412C83.9424 34.417 83.8135 34.6309 83.7256 34.8828C83.6436 35.1348 83.5967 35.4219 83.585 35.7441L83.0752 35.5859C83.0752 34.9707 83.1367 34.4053 83.2598 33.8896C83.3828 33.3682 83.5615 32.9141 83.7959 32.5273C84.0361 32.1406 84.3291 31.8418 84.6748 31.6309C85.0205 31.4199 85.416 31.3145 85.8613 31.3145C86.002 31.3145 86.1455 31.3262 86.292 31.3496C86.4385 31.3672 86.5586 31.3936 86.6523 31.4287ZM92.0488 41.1758C91.3105 41.1758 90.6484 41.0586 90.0625 40.8242C89.4766 40.584 88.9785 40.2529 88.5684 39.8311C88.1641 39.4092 87.8535 38.9199 87.6367 38.3633C87.4199 37.8008 87.3115 37.2031 87.3115 36.5703V36.2188C87.3115 35.498 87.4141 34.8389 87.6191 34.2412C87.8242 33.6436 88.1172 33.125 88.498 32.6855C88.8848 32.2461 89.3535 31.9092 89.9043 31.6748C90.4551 31.4346 91.0762 31.3145 91.7676 31.3145C92.4414 31.3145 93.0391 31.4258 93.5605 31.6484C94.082 31.8711 94.5186 32.1875 94.8701 32.5977C95.2275 33.0078 95.4971 33.5 95.6787 34.0742C95.8604 34.6426 95.9512 35.2754 95.9512 35.9727V37.0273H88.3926V35.3398H93.4639V35.1465C93.4639 34.7949 93.3994 34.4814 93.2705 34.2061C93.1475 33.9248 92.96 33.7021 92.708 33.5381C92.4561 33.374 92.1338 33.292 91.7412 33.292C91.4072 33.292 91.1201 33.3652 90.8799 33.5117C90.6396 33.6582 90.4434 33.8633 90.291 34.127C90.1445 34.3906 90.0332 34.7012 89.957 35.0586C89.8867 35.4102 89.8516 35.7969 89.8516 36.2188V36.5703C89.8516 36.9512 89.9043 37.3027 90.0098 37.625C90.1211 37.9473 90.2764 38.2256 90.4756 38.46C90.6807 38.6943 90.9268 38.876 91.2139 39.0049C91.5068 39.1338 91.8379 39.1982 92.207 39.1982C92.6641 39.1982 93.0889 39.1104 93.4814 38.9346C93.8799 38.7529 94.2227 38.4805 94.5098 38.1172L95.7402 39.4531C95.541 39.7402 95.2686 40.0156 94.9229 40.2793C94.583 40.543 94.1729 40.7598 93.6924 40.9297C93.2119 41.0938 92.6641 41.1758 92.0488 41.1758Z" fill="#F73F52"/>
<path fill-rule="evenodd" clip-rule="evenodd" d="M76 14H112V16H76V14ZM16 14H52V16H16V14ZM16 57H112V59H16V57Z" fill="#F73F52"/>
<path d="M2 50H126V22H2V50ZM0 20H128V52H0V20Z" fill="#F73F52"/>
</svg>
