<svg width="18" height="18" viewBox="0 0 18 18" fill="none" xmlns="http://www.w3.org/2000/svg">
<g clip-path="url(#clip0_22_43)">
<path d="M17.5888 15.5988L13.3806 11.3906C14.3375 9.96995 14.8097 8.19491 14.5569 6.3035C14.1259 3.08635 11.4891 0.468269 8.26883 0.0605621C3.4809 -0.545286 -0.545192 3.48081 0.0606908 8.26874C0.468503 11.4905 3.08694 14.1293 6.30444 14.5582C8.19585 14.8109 9.97124 14.339 11.3916 13.3819L15.5998 17.5901C16.1489 18.1392 17.0394 18.1392 17.5885 17.5901C18.1372 17.0402 18.1372 16.1473 17.5888 15.5988ZM2.78094 7.31249C2.78094 4.83116 4.79961 2.81249 7.28094 2.81249C9.76227 2.81249 11.7809 4.83116 11.7809 7.31249C11.7809 9.79382 9.76227 11.8125 7.28094 11.8125C4.79961 11.8125 2.78094 9.79452 2.78094 7.31249Z" fill="white"/>
</g>
<defs>
<clipPath id="clip0_22_43">
<rect width="18" height="18" fill="white"/>
</clipPath>
</defs>
</svg>
