<svg width="17" height="17" viewBox="0 0 17 17" fill="none" xmlns="http://www.w3.org/2000/svg">
<g clip-path="url(#clip0_26_80)">
<path d="M16.9734 12.8494L16.2015 16.1963C16.093 16.6695 15.6772 17.0005 15.1901 17.0005C6.81328 16.9998 0 10.1865 0 1.8094C0 1.32264 0.331002 0.906274 0.80418 0.798364L4.15105 0.0263917C4.63848 -0.0865653 5.13652 0.166442 5.33906 0.628032L6.88367 4.23057C7.06423 4.65491 6.94244 5.1493 6.58551 5.44083L4.79785 6.8762C5.92609 9.17452 7.79477 11.0432 10.0938 12.1721L11.5573 10.3858C11.8458 10.0278 12.3439 9.90399 12.7683 10.0878L16.3708 11.632C16.8041 11.86 17.0863 12.3647 16.9734 12.8494Z" fill="#A4A4A4"/>
</g>
<defs>
<clipPath id="clip0_26_80">
<rect width="17" height="17" fill="white"/>
</clipPath>
</defs>
</svg>
